<svg xmlns="http://www.w3.org/2000/svg" width="1254" height="1254" viewBox="98 96 1060 1060"><path fill="#0B0C10" d="M0 0h1254v1254H0z"/><path fill="#F6F2E9" d="M654.574 344.628c-.357-23.707 6.578-35.569 27.796-45.926 5.943 20.364 5.814 45.715-6.499 63.491-10.452 15.088-14.547 17.369-17.04 37.167-4.7 37.332 17.163 74.529 39.854 102.81-18.216 22.689-27.756 54.81-30.343 83.519-6.139 68.122 28.896 146.738 72.548 197.983-2.341 2.246-5.475 4.826-7.982 6.994a161.1 161.1 0 0 1-96.554 39.596c-47.658 2.901-88.087-15.553-122.987-46.443 5.331-6.153 10.042-12.689 14.759-19.321 37.131-52.215 62.895-117.193 57.197-182.161-2.361-26.916-12.911-58.87-29.746-80.088 15.528-15.449 34.051-49.449 38.441-70.636 3.556-17.163 3.996-38.619-4.259-54.83-2.583-5.072-8.872-11.667-12.103-17.164-11.579-19.697-10.792-39.766-5.76-61.025 22.602 11.133 27.947 21.591 28.48 46.667 14.955 12.094 21.308 26.508 27.185 44.232 6.328-19.962 11.446-30.522 27.013-44.865"/><path fill="#F6F2E9" d="M712.072 511.334c20.654 2.936 32.844 5.361 52.373 14.431a190.53 190.53 0 0 1 99.552 107.416c24.857 68.338 2.676 147.364-27.002 210.524-1.564 3.454-3.41 6.993-5.119 10.399-16.059-13.195-35.642-32.596-49.435-48.059-46.404-52.025-89.457-116.018-97.169-186.97-3.806-35.018 4.516-80.047 26.8-107.741"/><path fill="#F6F2E9" d="M541.919 511.614c1.84 1.316 8.053 11.382 9.266 13.604 13.35 24.47 20.544 54.896 18.642 82.796-6.637 97.382-77.324 183.768-146.679 246.313l-4.311-8.816c-19.191-40.169-33.266-81.076-37.804-125.587a190.55 190.55 0 0 1 41.028-139.644c29.585-36.09 72.795-63.925 119.858-68.666"/><path fill="#F6F2E9" d="M608.008 845.405c16.369 1.333 21.633 1.983 38.149-.052 10.182 37.349 19.095 78.822 28.351 116.821l10.348 42.426c2.42 9.94 5.692 21 6.36 31.16 2.092 31.84-15.695 58.85-45.624 69.67-11.395 2.86-18.741 3.92-30.542 1.57-29.559-5.82-52.814-36.12-51.824-66.07.597-18.04 7.684-38.22 11.563-56.198 10.057-46.598 23.123-92.758 33.219-139.327"/><path fill="#F6F2E9" d="M556.851 831.201c13.798 5.668 22.612 9.167 37.526 11.801-3.455 16.52-8.252 34.632-12.384 51.176l-19.018 76.719c-5.924 24.071-14.413 50.293-14.252 74.593-13.03.88-18.983.77-31.171-3.36-4.336-1.69-7.549-3.21-11.46-5.81a69.1 69.1 0 0 1-29.143-44.633 77.13 77.13 0 0 1 3.647-40.747c5.569-15.255 22.557-39.136 32.062-53.49a7554 7554 0 0 1 44.193-66.249"/><path fill="#F6F2E9" d="m696.855 831.493 1.166.005c1.631 1.559 15.207 22.748 17.525 26.256l34.085 51.613c6.978 10.603 15.459 22.275 20.823 33.723 17.675 37.723 6.814 80.65-32.368 98.76-11.791 4.48-19.379 4.33-31.937 3.7.233-21.72-3.936-32.78-9.191-53.671l-9.157-37.061-27.8-111.398c15.001-3.245 22.799-5.955 36.854-11.927"/><path fill="#F6F2E9" d="M572.753 286.776c6.682-16.33 16.72-28.443 33.37-35.377a55.45 55.45 0 0 1 42.533-.129c16.475 6.803 26.811 19.255 33.643 35.392-22.104 6.557-34.242 22.743-37.222 45.244-.23 2.232-.202 5.184-.253 7.486-9.397 8.109-11.697 13.82-17.714 24.737-4.265-9.584-9.131-17.46-17.049-24.387.088-2.531.012-5.399.005-7.96-4.161-24.115-14.14-36.48-37.313-45.006"/><path fill="#D2A12C" d="M610.066 331.782c5.485-4.946 11.385-10.579 17.524-14.589 6.695 4.698 11.55 9.055 17.487 14.713-.23 2.232-.202 5.184-.253 7.486-9.397 8.109-11.697 13.82-17.714 24.737-4.265-9.584-9.131-17.46-17.049-24.387.088-2.531.012-5.399.005-7.96"/><path fill="#D2A12C" d="M625.719 145.242c2.124-.091 5.398.174 7.416.754a21.43 21.43 0 0 1 13.04 10.786 20.3 20.3 0 0 1 2.121 10.799c-.523 7.1-5.643 24-7.85 31.6-3.209 11.049-6.722 25.058-10.517 35.672-2.009-.123-2.001-.111-3.904-.751-4.228-4.511-14.081-47.056-17.524-56.51-5.301-14.552.676-28.941 17.218-32.35"/><path fill="#D2A12C" d="M674.504 178.364c20.081-.086 26.472 22.326 10.044 33.881-9.913 6.972-19.731 13.213-30.357 19.067-2.782 1.57-11.66 7.642-13.722 3.429 1.407-8.96 15.594-38.463 20.447-48.322 2.131-4.331 8.716-7.007 13.588-8.055"/><path fill="#D2A12C" d="M577.915 178.276c18.223-.623 22.987 23.245 29.62 36.178 3.148 6.137 5.709 13.78 7.289 20.499L613.366 236c-4.16.658-6.864-1.622-10.609-3.765-10.755-6.359-36.629-20.077-39.997-31.394a17.92 17.92 0 0 1 1.934-14.344c3.071-4.986 7.806-6.949 13.221-8.221"/></svg>